<?xml version="1.0" encoding="utf-8"?><!DOCTYPE svg PUBLIC "-//W3C//DTD SVG 1.1//EN" "http://www.w3.org/Graphics/SVG/1.1/DTD/svg11.dtd"><svg version="1.1" baseProfile="full" xmlns="http://www.w3.org/2000/svg" xmlns:xlink="http://www.w3.org/1999/xlink" xmlns:ev="http://www.w3.org/2001/xml-events"   height="45px"   width="46px" ><path fill="rgb( 218, 218, 218 )" d="M23.002,44.5070000000001 C10.868,44.5070000000001 0.99700000000001,34.6350000000002 0.99700000000001,22.502 C0.99700000000001,10.3679999999999 10.868,0.49699999999984 23.002,0.49699999999984 C35.135,0.49699999999984 45.007,10.3679999999999 45.007,22.502 C45.007,34.6350000000002 35.135,44.5070000000001 23.002,44.5070000000001 ZM23.002,1.98900000000003 C11.692,1.98900000000003 2.48899999999998,11.1909999999998 2.48899999999998,22.502 C2.48899999999998,33.8119999999999 11.692,43.0149999999999 23.002,43.0149999999999 C34.313,43.0149999999999 43.515,33.8119999999999 43.515,22.502 C43.515,11.1909999999998 34.313,1.98900000000003 23.002,1.98900000000003 Z "/><path fill="rgb( 218, 218, 218 )" d="M31.528,29.5340000000001 C31.213,29.846 30.835,30.002 30.393,30.002 L15.607,30.002 C15.165,30.002 14.787,29.846 14.472,29.5340000000001 C14.157,29.2220000000002 14,28.848 14,28.4099999999999 L14,20.5140000000001 C14.295,20.8389999999999 14.633,21.127 15.015,21.3789999999999 C17.439,23.0100000000002 19.103,24.154 20.007,24.8099999999999 C20.388,25.0889999999999 20.698,25.306 20.936,25.4609999999998 C21.174,25.6179999999999 21.49,25.7759999999998 21.885,25.9389999999999 C22.28,26.1010000000001 22.648,26.1819999999998 22.99,26.1819999999998 L23,26.1819999999998 L23.01,26.1819999999998 C23.352,26.1819999999998 23.72,26.1010000000001 24.115,25.9389999999999 C24.51,25.7759999999998 24.826,25.6179999999999 25.064,25.4609999999998 C25.302,25.306 25.612,25.0889999999999 25.993,24.8099999999999 C27.132,23.9940000000001 28.799,22.8510000000001 30.995,21.3789999999999 C31.377,21.1199999999999 31.712,20.8319999999999 32,20.5140000000001 L32,28.4099999999999 C32,28.848 31.843,29.2220000000002 31.528,29.5340000000001 ZM30.282,20.3150000000001 C27.765,22.0450000000001 26.197,23.1219999999998 25.582,23.547 C25.515,23.5929999999998 25.372,23.694 25.155,23.8499999999999 C24.937,24.0059999999999 24.756,24.1320000000001 24.612,24.2280000000001 C24.468,24.3240000000001 24.294,24.4319999999998 24.09,24.5509999999999 C23.886,24.6709999999998 23.693,24.7600000000002 23.512,24.8200000000002 C23.332,24.8789999999999 23.164,24.9090000000001 23.01,24.9090000000001 L23,24.9090000000001 L22.99,24.9090000000001 C22.836,24.9090000000001 22.668,24.8789999999999 22.488,24.8200000000002 C22.307,24.7600000000002 22.114,24.6709999999998 21.91,24.5509999999999 C21.706,24.4319999999998 21.532,24.3240000000001 21.388,24.2280000000001 C21.244,24.1320000000001 21.063,24.0059999999999 20.845,23.8499999999999 C20.628,23.694 20.485,23.5929999999998 20.418,23.547 C19.809,23.123 18.932,22.518 17.787,21.732 C16.642,20.9459999999999 15.955,20.4740000000002 15.728,20.3150000000001 C15.313,20.0360000000001 14.921,19.6529999999998 14.552,19.1660000000002 C14.184,18.6790000000001 14,18.2260000000001 14,17.8090000000002 C14,17.2910000000002 14.139,16.8600000000001 14.417,16.5160000000001 C14.695,16.1709999999998 15.091,15.9989999999998 15.607,15.9989999999998 L30.393,15.9989999999998 C30.828,15.9989999999998 31.205,16.154 31.523,16.4659999999999 C31.841,16.777 32,17.152 32,17.5900000000001 C32,18.114 31.836,18.614 31.508,19.0909999999999 C31.18,19.569 30.771,19.9769999999999 30.282,20.3150000000001 Z "/></svg>