<?xml version="1.0" encoding="utf-8"?><!DOCTYPE svg PUBLIC "-//W3C//DTD SVG 1.1//EN" "http://www.w3.org/Graphics/SVG/1.1/DTD/svg11.dtd"><svg version="1.1" baseProfile="full" xmlns="http://www.w3.org/2000/svg" xmlns:xlink="http://www.w3.org/1999/xlink" xmlns:ev="http://www.w3.org/2001/xml-events"   height="45px"   width="46px" ><path fill="rgb( 218, 218, 218 )" d="M23.002,44.5070000000001 C10.868,44.5070000000001 0.99700000000001,34.6350000000002 0.99700000000001,22.502 C0.99700000000001,10.3679999999999 10.868,0.49699999999984 23.002,0.49699999999984 C35.135,0.49699999999984 45.007,10.3679999999999 45.007,22.502 C45.007,34.6350000000002 35.135,44.5070000000001 23.002,44.5070000000001 ZM23.002,1.98900000000003 C11.692,1.98900000000003 2.48899999999998,11.1909999999998 2.48899999999998,22.502 C2.48899999999998,33.8119999999999 11.692,43.0149999999999 23.002,43.0149999999999 C34.313,43.0149999999999 43.515,33.8119999999999 43.515,22.502 C43.515,11.1909999999998 34.313,1.98900000000003 23.002,1.98900000000003 Z "/><path fill="rgb( 218, 218, 218 )" d="M31.594,28.2429999999999 L28.815,25.4560000000001 C28.261,24.904 27.345,24.9200000000001 26.772,25.4949999999999 L25.372,26.8989999999999 C25.283,26.8490000000002 25.192,26.7979999999998 25.096,26.7440000000001 C24.212,26.2530000000002 23.001,25.5799999999999 21.728,24.3020000000001 C20.451,23.0210000000002 19.779,21.806 19.287,20.9189999999999 C19.235,20.8249999999998 19.186,20.7339999999999 19.137,20.6480000000001 L20.077,19.7069999999999 L20.538,19.2440000000001 C21.112,18.6680000000001 21.128,17.7489999999998 20.576,17.1950000000002 L17.797,14.4079999999999 C17.245,13.8539999999998 16.327,13.8710000000001 15.754,14.4459999999999 L14.97,15.2359999999999 L14.992,15.2570000000001 C14.729,15.5940000000001 14.51,15.9810000000002 14.347,16.3989999999999 C14.196,16.797 14.102,17.1759999999999 14.059,17.5569999999998 C13.693,20.607 15.083,23.395 18.855,27.1790000000001 C24.07,32.4070000000002 28.273,32.0120000000002 28.454,31.9929999999999 C28.849,31.9459999999999 29.227,31.8510000000001 29.612,31.701 C30.025,31.5390000000002 30.412,31.3200000000002 30.746,31.0569999999998 L30.763,31.0720000000001 L31.557,30.2930000000001 C32.13,29.7179999999998 32.146,28.799 31.594,28.2429999999999 Z "/></svg>