<?xml version="1.0" encoding="utf-8"?><!DOCTYPE svg PUBLIC "-//W3C//DTD SVG 1.1//EN" "http://www.w3.org/Graphics/SVG/1.1/DTD/svg11.dtd"><svg version="1.1" baseProfile="full" xmlns="http://www.w3.org/2000/svg" xmlns:xlink="http://www.w3.org/1999/xlink" xmlns:ev="http://www.w3.org/2001/xml-events"   height="45px"   width="46px" ><path fill="rgb( 218, 218, 218 )" d="M23.002,44.5070000000001 C10.868,44.5070000000001 0.99700000000001,34.6350000000002 0.99700000000001,22.502 C0.99700000000001,10.3679999999999 10.868,0.49699999999984 23.002,0.49699999999984 C35.135,0.49699999999984 45.007,10.3679999999999 45.007,22.502 C45.007,34.6350000000002 35.135,44.5070000000001 23.002,44.5070000000001 ZM23.002,1.98900000000003 C11.692,1.98900000000003 2.48899999999998,11.1909999999998 2.48899999999998,22.502 C2.48899999999998,33.8119999999999 11.692,43.0149999999999 23.002,43.0149999999999 C34.313,43.0149999999999 43.515,33.8119999999999 43.515,22.502 C43.515,11.1909999999998 34.313,1.98900000000003 23.002,1.98900000000003 Z "/><path fill="rgb( 218, 218, 218 )" d="M23,12 C19.134,12 16,15.078 16,18.875 C16,25.4389999999999 23,34 23,34 C23,34 30,25.4389999999999 30,18.875 C30,15.078 26.866,12 23,12 ZM23,22.6700000000001 C20.912,22.6700000000001 19.22,21.0079999999998 19.22,18.9569999999999 C19.22,16.9070000000002 20.912,15.2449999999999 23,15.2449999999999 C25.087,15.2449999999999 26.78,16.9070000000002 26.78,18.9569999999999 C26.78,21.0079999999998 25.087,22.6700000000001 23,22.6700000000001 Z "/></svg>