<?xml version="1.0" encoding="UTF-8" standalone="no"?>
<svg width="82px" height="82px" viewBox="0 0 130 130" version="1.1" xmlns="http://www.w3.org/2000/svg" xmlns:xlink="http://www.w3.org/1999/xlink" xmlns:sketch="http://www.bohemiancoding.com/sketch/ns">
    <!-- Generator: Sketch 3.5.2 (25235) - http://www.bohemiancoding.com/sketch -->
    <title>Layer_1</title>
    <desc>Created with Sketch.</desc>
    <defs></defs>
    <g id="Page-1" stroke="none" stroke-width="1" fill="none" fill-rule="evenodd" sketch:type="MSPage">
        <g id="Desktop" sketch:type="MSArtboardGroup" transform="translate(-2.000000, 15.000000)">
            <g id="logo" sketch:type="MSLayerGroup" transform="translate(10.000000, 10.000000)">
                <g id="Layer_1" sketch:type="MSShapeGroup">
                    <path d="M112.798767,0.0618867925 L24.1015068,7.44188679 C14.519726,8.07622642 11.8108219,14.5124528 11.0213699,19.3086792 C10.2783562,23.7181132 9.22575342,40.7988679 3.20424658,52.5109434 C2.2909589,54.2901887 1.4860274,55.7909434 0.743013699,57.0441509 C-0.148963942,58.5320707 -0.229376767,60.3694386 0.529204276,61.9295231 C1.28778532,63.4896076 2.78288505,64.56166 4.50452055,64.78 L85.6168493,81.4584906 C87.2645966,81.7178366 88.940618,81.2107237 90.1678082,80.0815094 C94.6568493,75.9196226 99.1768493,72.3456604 104.439863,64.3467925 C111.822837,53.6272233 114.089161,40.194654 110.631644,27.6479245 C109.083699,21.2581132 107.040411,14.9920755 108.356164,9.46867925 C109.90411,3.03245283 115.074247,0.804528302 120.33726,1.06754717 C120.430137,1.14490566 119.346575,-0.293962264 112.798767,0.0618867925 L112.798767,0.0618867925 Z M16.299863,55.76 L16.299863,55.5898113 L16.299863,55.76 L16.299863,55.76 L16.299863,55.76 Z" id="Shape" fill="#ED1C24"></path>
                    <path d="M38.1258904,30.4018868 C38.1674341,31.9811696 37.6888433,33.5303747 36.7636986,34.8113208 C35.7085205,35.7359594 34.3234639,36.1936923 32.9247945,36.08 L29.1478082,36.08 L31.0982192,26.8898113 L34.1012329,26.8898113 C36.8875342,26.8898113 38.1413699,28.1430189 38.1413699,30.4018868 L38.1258904,30.4018868 Z M34.5191781,20.2679245 L22.8321918,20.2679245 L23.9931507,23.2075471 L17.0583562,56.7037736 L24.7980822,56.7037736 L27.8939726,41.8354717 C32.2127397,41.8354717 33.0486301,42.8256604 33.5749315,46.2913208 L34.9371233,56.6883019 L42.5530137,56.6883019 L41.0050685,46.7554717 C40.4323288,42.8720755 39.6428767,40.8762264 37.8008219,40.0871698 C42.8006849,39.0350943 45.7417808,36.3120755 45.7417808,29.7984906 C45.7572603,24.6309434 42.9709589,20.2679245 34.5191781,20.2679245 Z M72.3045205,20.2369811 L51.2679452,20.2369811 L52.6301368,23.2075471 L51.9026027,26.5649057 L45.509589,56.7037736 L65.4935616,56.7037736 L66.8557534,50.1437736 L54.6579452,50.1437736 L56.6083562,40.8607547 L65.4935616,40.8607547 L66.8557534,34.6720755 L57.9241096,34.6720755 L59.5494521,26.750566 L70.9423288,26.750566 L72.3045205,20.2369811 Z M91.3906849,32.3822642 C91.1892129,37.0495275 90.2487751,41.6553644 88.6043836,46.0283019 C87.7937235,48.7936964 85.1058741,50.5716254 82.2423288,50.2366038 L78.4034247,50.2366038 L83.449726,26.7041509 L86.5456164,26.7041509 C89.440274,26.7041509 91.3287671,28.0656604 91.3287671,32.3822642 L91.3906849,32.3822642 Z M87.5982192,20.190566 L74.30137,20.190566 L75.8493148,23.2075472 L69.3789041,56.7037736 L82.1494521,56.7037736 C87.7220548,56.7037736 91.4371233,55.2339623 94.1769863,51.2422642 C97.5979452,46.9256604 99.3780822,38.6328302 99.3780822,32.3822642 C99.3161644,23.9192453 94.7961644,20.190566 87.5982192,20.190566 Z" id="Shape" fill="#FFFFFF"></path>
                 </g>
            </g>
        </g>
    </g>
</svg>